<mxfile host="app.diagrams.net" agent="Mozilla/5.0 (Windows NT 10.0; Win64; x64) AppleWebKit/537.36 (KHTML, like Gecko) Chrome/128.0.0.0 YaBrowser/24.10.0.0 Safari/537.36" version="24.7.17">
  <diagram name="Страница — 1" id="XyX01asF92II2D4djbyy">
    <mxGraphModel dx="683" dy="395" grid="0" gridSize="10" guides="1" tooltips="1" connect="1" arrows="1" fold="1" page="1" pageScale="1" pageWidth="827" pageHeight="900" background="#FFFFFF" math="0" shadow="0">
      <root>
        <mxCell id="0" />
        <mxCell id="1" parent="0" />
        <mxCell id="YY5nXGFPdTbep0M1L_WH-1" value="MainView" style="swimlane;fontStyle=0;childLayout=stackLayout;horizontal=1;startSize=26;fillColor=none;horizontalStack=0;resizeParent=1;resizeParentMax=0;resizeLast=0;collapsible=1;marginBottom=0;whiteSpace=wrap;html=1;" vertex="1" parent="1">
          <mxGeometry x="76" y="84.5" width="192" height="138" as="geometry" />
        </mxCell>
        <mxCell id="YY5nXGFPdTbep0M1L_WH-2" value="- table: QTableWidget&lt;div&gt;- add_button: QPushButton&lt;/div&gt;&lt;div&gt;- edit_button: QPushButton&lt;/div&gt;&lt;div&gt;&lt;span style=&quot;background-color: initial;&quot;&gt;- delete_button: QPushButton&lt;/span&gt;&lt;br&gt;&lt;/div&gt;&lt;div&gt;&lt;span style=&quot;background-color: initial;&quot;&gt;- filter_button: QPushButton&lt;/span&gt;&lt;br&gt;&lt;/div&gt;&lt;div&gt;&lt;span style=&quot;background-color: initial;&quot;&gt;- reset_filter_button: QPushButton&lt;/span&gt;&lt;br&gt;&lt;/div&gt;&lt;div&gt;&lt;span style=&quot;background-color: initial;&quot;&gt;+ update(items)&lt;/span&gt;&lt;br&gt;&lt;/div&gt;" style="text;strokeColor=none;fillColor=none;align=left;verticalAlign=top;spacingLeft=4;spacingRight=4;overflow=hidden;rotatable=0;points=[[0,0.5],[1,0.5]];portConstraint=eastwest;whiteSpace=wrap;html=1;" vertex="1" parent="YY5nXGFPdTbep0M1L_WH-1">
          <mxGeometry y="26" width="192" height="112" as="geometry" />
        </mxCell>
        <mxCell id="YY5nXGFPdTbep0M1L_WH-51" style="edgeStyle=orthogonalEdgeStyle;rounded=0;orthogonalLoop=1;jettySize=auto;html=1;entryX=0.5;entryY=0;entryDx=0;entryDy=0;" edge="1" parent="1" source="YY5nXGFPdTbep0M1L_WH-5" target="YY5nXGFPdTbep0M1L_WH-9">
          <mxGeometry relative="1" as="geometry" />
        </mxCell>
        <mxCell id="YY5nXGFPdTbep0M1L_WH-57" style="edgeStyle=orthogonalEdgeStyle;rounded=0;orthogonalLoop=1;jettySize=auto;html=1;" edge="1" parent="1" source="YY5nXGFPdTbep0M1L_WH-5" target="YY5nXGFPdTbep0M1L_WH-35">
          <mxGeometry relative="1" as="geometry">
            <Array as="points">
              <mxPoint x="568" y="193" />
              <mxPoint x="568" y="631" />
              <mxPoint x="653" y="631" />
            </Array>
          </mxGeometry>
        </mxCell>
        <mxCell id="YY5nXGFPdTbep0M1L_WH-5" value="MainController" style="swimlane;fontStyle=0;childLayout=stackLayout;horizontal=1;startSize=26;fillColor=none;horizontalStack=0;resizeParent=1;resizeParentMax=0;resizeLast=0;collapsible=1;marginBottom=0;whiteSpace=wrap;html=1;" vertex="1" parent="1">
          <mxGeometry x="370" y="77" width="140" height="153" as="geometry" />
        </mxCell>
        <mxCell id="YY5nXGFPdTbep0M1L_WH-6" value="- view: MainView&lt;div&gt;- repo: Repository&lt;br&gt;&lt;/div&gt;&lt;div&gt;&lt;div&gt;+ update_view()&lt;/div&gt;&lt;/div&gt;&lt;div&gt;&lt;div&gt;+ add_item()&lt;/div&gt;&lt;/div&gt;&lt;div&gt;&lt;div&gt;+ edit_item()&lt;/div&gt;&lt;/div&gt;&lt;div&gt;+ delete_item()&lt;br&gt;&lt;/div&gt;&lt;div&gt;+ apply_filter()&lt;/div&gt;&lt;div&gt;&lt;span style=&quot;background-color: initial;&quot;&gt;+ reset_filter()&lt;/span&gt;&lt;/div&gt;" style="text;strokeColor=none;fillColor=none;align=left;verticalAlign=top;spacingLeft=4;spacingRight=4;overflow=hidden;rotatable=0;points=[[0,0.5],[1,0.5]];portConstraint=eastwest;whiteSpace=wrap;html=1;" vertex="1" parent="YY5nXGFPdTbep0M1L_WH-5">
          <mxGeometry y="26" width="140" height="127" as="geometry" />
        </mxCell>
        <mxCell id="YY5nXGFPdTbep0M1L_WH-9" value="FilteredRepository" style="swimlane;fontStyle=0;childLayout=stackLayout;horizontal=1;startSize=26;fillColor=none;horizontalStack=0;resizeParent=1;resizeParentMax=0;resizeLast=0;collapsible=1;marginBottom=0;whiteSpace=wrap;html=1;" vertex="1" parent="1">
          <mxGeometry x="370" y="298" width="140" height="110" as="geometry" />
        </mxCell>
        <mxCell id="YY5nXGFPdTbep0M1L_WH-10" value="- filter_condition: func&lt;div&gt;- repository: Repository&lt;/div&gt;&lt;div&gt;+ set_filter()&lt;/div&gt;&lt;div&gt;+ get_filtered_items()&lt;/div&gt;" style="text;strokeColor=none;fillColor=none;align=left;verticalAlign=top;spacingLeft=4;spacingRight=4;overflow=hidden;rotatable=0;points=[[0,0.5],[1,0.5]];portConstraint=eastwest;whiteSpace=wrap;html=1;" vertex="1" parent="YY5nXGFPdTbep0M1L_WH-9">
          <mxGeometry y="26" width="140" height="84" as="geometry" />
        </mxCell>
        <mxCell id="YY5nXGFPdTbep0M1L_WH-66" style="edgeStyle=orthogonalEdgeStyle;rounded=0;orthogonalLoop=1;jettySize=auto;html=1;" edge="1" parent="1" source="YY5nXGFPdTbep0M1L_WH-14" target="YY5nXGFPdTbep0M1L_WH-19">
          <mxGeometry relative="1" as="geometry">
            <Array as="points">
              <mxPoint x="349" y="518" />
              <mxPoint x="349" y="518" />
            </Array>
          </mxGeometry>
        </mxCell>
        <mxCell id="YY5nXGFPdTbep0M1L_WH-67" style="edgeStyle=orthogonalEdgeStyle;rounded=0;orthogonalLoop=1;jettySize=auto;html=1;exitX=0.75;exitY=0;exitDx=0;exitDy=0;" edge="1" parent="1" source="YY5nXGFPdTbep0M1L_WH-14" target="YY5nXGFPdTbep0M1L_WH-9">
          <mxGeometry relative="1" as="geometry">
            <Array as="points">
              <mxPoint x="478" y="420" />
              <mxPoint x="478" y="420" />
            </Array>
          </mxGeometry>
        </mxCell>
        <mxCell id="YY5nXGFPdTbep0M1L_WH-14" value="Repository " style="swimlane;fontStyle=0;childLayout=stackLayout;horizontal=1;startSize=26;fillColor=none;horizontalStack=0;resizeParent=1;resizeParentMax=0;resizeLast=0;collapsible=1;marginBottom=0;whiteSpace=wrap;html=1;" vertex="1" parent="1">
          <mxGeometry x="364" y="463" width="152" height="196" as="geometry" />
        </mxCell>
        <mxCell id="YY5nXGFPdTbep0M1L_WH-15" value="- json_file: Path&lt;div&gt;- items: List[Item]&lt;/div&gt;&lt;div&gt;- observers: List[Observer]&lt;/div&gt;&lt;div&gt;+ add_observer()&lt;/div&gt;&lt;div&gt;+ notify_observers()&lt;/div&gt;&lt;div&gt;+ _load_items()&lt;/div&gt;&lt;div&gt;+ _save_items()&lt;/div&gt;&lt;div&gt;+ get_all_items()&lt;/div&gt;&lt;div&gt;+ add_item()&lt;/div&gt;&lt;div&gt;+ update_item()&lt;/div&gt;&lt;div&gt;+ delete_item()&lt;/div&gt;" style="text;strokeColor=none;fillColor=none;align=left;verticalAlign=top;spacingLeft=4;spacingRight=4;overflow=hidden;rotatable=0;points=[[0,0.5],[1,0.5]];portConstraint=eastwest;whiteSpace=wrap;html=1;" vertex="1" parent="YY5nXGFPdTbep0M1L_WH-14">
          <mxGeometry y="26" width="152" height="170" as="geometry" />
        </mxCell>
        <mxCell id="YY5nXGFPdTbep0M1L_WH-19" value="Item" style="swimlane;fontStyle=0;childLayout=stackLayout;horizontal=1;startSize=26;fillColor=none;horizontalStack=0;resizeParent=1;resizeParentMax=0;resizeLast=0;collapsible=1;marginBottom=0;whiteSpace=wrap;html=1;" vertex="1" parent="1">
          <mxGeometry x="221" y="463" width="97" height="109" as="geometry" />
        </mxCell>
        <mxCell id="YY5nXGFPdTbep0M1L_WH-20" value="- id: int&lt;div&gt;- name: str&lt;/div&gt;&lt;div&gt;- price: float&lt;/div&gt;&lt;div&gt;+ to_dict()&lt;/div&gt;&lt;div&gt;+ from_dict()&lt;/div&gt;" style="text;strokeColor=none;fillColor=none;align=left;verticalAlign=top;spacingLeft=4;spacingRight=4;overflow=hidden;rotatable=0;points=[[0,0.5],[1,0.5]];portConstraint=eastwest;whiteSpace=wrap;html=1;" vertex="1" parent="YY5nXGFPdTbep0M1L_WH-19">
          <mxGeometry y="26" width="97" height="83" as="geometry" />
        </mxCell>
        <mxCell id="YY5nXGFPdTbep0M1L_WH-23" value="ItemFormView" style="swimlane;fontStyle=0;childLayout=stackLayout;horizontal=1;startSize=26;fillColor=none;horizontalStack=0;resizeParent=1;resizeParentMax=0;resizeLast=0;collapsible=1;marginBottom=0;whiteSpace=wrap;html=1;" vertex="1" parent="1">
          <mxGeometry x="599" y="463" width="166" height="110" as="geometry" />
        </mxCell>
        <mxCell id="YY5nXGFPdTbep0M1L_WH-24" value="- id_input: QLineEdit&lt;div&gt;- name_input: QLineEdit&lt;br&gt;&lt;/div&gt;&lt;div&gt;- price_input: QLineEdit&lt;br&gt;&lt;/div&gt;&lt;div&gt;+ buttons: QDialogButtonBox&lt;br&gt;&lt;/div&gt;&lt;div&gt;+ setLayout()&lt;br&gt;&lt;/div&gt;" style="text;strokeColor=none;fillColor=none;align=left;verticalAlign=top;spacingLeft=4;spacingRight=4;overflow=hidden;rotatable=0;points=[[0,0.5],[1,0.5]];portConstraint=eastwest;whiteSpace=wrap;html=1;" vertex="1" parent="YY5nXGFPdTbep0M1L_WH-23">
          <mxGeometry y="26" width="166" height="84" as="geometry" />
        </mxCell>
        <mxCell id="YY5nXGFPdTbep0M1L_WH-58" style="edgeStyle=orthogonalEdgeStyle;rounded=0;orthogonalLoop=1;jettySize=auto;html=1;" edge="1" parent="1" source="YY5nXGFPdTbep0M1L_WH-27" target="YY5nXGFPdTbep0M1L_WH-31">
          <mxGeometry relative="1" as="geometry">
            <Array as="points">
              <mxPoint x="328" y="760" />
              <mxPoint x="328" y="760" />
            </Array>
          </mxGeometry>
        </mxCell>
        <mxCell id="YY5nXGFPdTbep0M1L_WH-59" style="edgeStyle=orthogonalEdgeStyle;rounded=0;orthogonalLoop=1;jettySize=auto;html=1;" edge="1" parent="1" source="YY5nXGFPdTbep0M1L_WH-27" target="YY5nXGFPdTbep0M1L_WH-35">
          <mxGeometry relative="1" as="geometry">
            <Array as="points">
              <mxPoint x="572" y="760" />
              <mxPoint x="572" y="760" />
            </Array>
          </mxGeometry>
        </mxCell>
        <mxCell id="YY5nXGFPdTbep0M1L_WH-27" value="ControllerFactory" style="swimlane;fontStyle=0;childLayout=stackLayout;horizontal=1;startSize=26;fillColor=none;horizontalStack=0;resizeParent=1;resizeParentMax=0;resizeLast=0;collapsible=1;marginBottom=0;whiteSpace=wrap;html=1;" vertex="1" parent="1">
          <mxGeometry x="353" y="711" width="174" height="65" as="geometry" />
        </mxCell>
        <mxCell id="YY5nXGFPdTbep0M1L_WH-28" value="+ create_add_item_controller()&lt;div&gt;+ create_edit_item_controller()&lt;br&gt;&lt;/div&gt;" style="text;strokeColor=none;fillColor=none;align=left;verticalAlign=top;spacingLeft=4;spacingRight=4;overflow=hidden;rotatable=0;points=[[0,0.5],[1,0.5]];portConstraint=eastwest;whiteSpace=wrap;html=1;" vertex="1" parent="YY5nXGFPdTbep0M1L_WH-27">
          <mxGeometry y="26" width="174" height="39" as="geometry" />
        </mxCell>
        <mxCell id="YY5nXGFPdTbep0M1L_WH-63" style="edgeStyle=orthogonalEdgeStyle;rounded=0;orthogonalLoop=1;jettySize=auto;html=1;" edge="1" parent="1" source="YY5nXGFPdTbep0M1L_WH-31" target="YY5nXGFPdTbep0M1L_WH-23">
          <mxGeometry relative="1" as="geometry">
            <Array as="points">
              <mxPoint x="217" y="823" />
              <mxPoint x="790" y="823" />
              <mxPoint x="790" y="518" />
            </Array>
          </mxGeometry>
        </mxCell>
        <mxCell id="YY5nXGFPdTbep0M1L_WH-64" style="edgeStyle=orthogonalEdgeStyle;rounded=0;orthogonalLoop=1;jettySize=auto;html=1;" edge="1" parent="1" source="YY5nXGFPdTbep0M1L_WH-31" target="YY5nXGFPdTbep0M1L_WH-14">
          <mxGeometry relative="1" as="geometry">
            <Array as="points">
              <mxPoint x="261" y="632" />
            </Array>
          </mxGeometry>
        </mxCell>
        <mxCell id="YY5nXGFPdTbep0M1L_WH-31" value="AddItemController" style="swimlane;fontStyle=0;childLayout=stackLayout;horizontal=1;startSize=26;fillColor=none;horizontalStack=0;resizeParent=1;resizeParentMax=0;resizeLast=0;collapsible=1;marginBottom=0;whiteSpace=wrap;html=1;" vertex="1" parent="1">
          <mxGeometry x="146.5" y="698.5" width="140" height="90" as="geometry" />
        </mxCell>
        <mxCell id="YY5nXGFPdTbep0M1L_WH-32" value="- view: ItemFormView&lt;div&gt;- repo: Repository&lt;/div&gt;&lt;div&gt;+ add_item()&lt;/div&gt;" style="text;strokeColor=none;fillColor=none;align=left;verticalAlign=top;spacingLeft=4;spacingRight=4;overflow=hidden;rotatable=0;points=[[0,0.5],[1,0.5]];portConstraint=eastwest;whiteSpace=wrap;html=1;" vertex="1" parent="YY5nXGFPdTbep0M1L_WH-31">
          <mxGeometry y="26" width="140" height="64" as="geometry" />
        </mxCell>
        <mxCell id="YY5nXGFPdTbep0M1L_WH-61" style="edgeStyle=orthogonalEdgeStyle;rounded=0;orthogonalLoop=1;jettySize=auto;html=1;" edge="1" parent="1" source="YY5nXGFPdTbep0M1L_WH-35" target="YY5nXGFPdTbep0M1L_WH-23">
          <mxGeometry relative="1" as="geometry" />
        </mxCell>
        <mxCell id="YY5nXGFPdTbep0M1L_WH-65" style="edgeStyle=orthogonalEdgeStyle;rounded=0;orthogonalLoop=1;jettySize=auto;html=1;" edge="1" parent="1" source="YY5nXGFPdTbep0M1L_WH-35" target="YY5nXGFPdTbep0M1L_WH-14">
          <mxGeometry relative="1" as="geometry">
            <Array as="points">
              <mxPoint x="545" y="744" />
              <mxPoint x="545" y="561" />
            </Array>
          </mxGeometry>
        </mxCell>
        <mxCell id="YY5nXGFPdTbep0M1L_WH-35" value="EditItemController    " style="swimlane;fontStyle=0;childLayout=stackLayout;horizontal=1;startSize=26;fillColor=none;horizontalStack=0;resizeParent=1;resizeParentMax=0;resizeLast=0;collapsible=1;marginBottom=0;whiteSpace=wrap;html=1;" vertex="1" parent="1">
          <mxGeometry x="612" y="696.5" width="140" height="94" as="geometry" />
        </mxCell>
        <mxCell id="YY5nXGFPdTbep0M1L_WH-36" value="- view: ItemFormView&lt;div&gt;- repo: Repository&lt;/div&gt;&lt;div&gt;- item: Item&lt;/div&gt;&lt;div&gt;+ save_item()&lt;/div&gt;" style="text;strokeColor=none;fillColor=none;align=left;verticalAlign=top;spacingLeft=4;spacingRight=4;overflow=hidden;rotatable=0;points=[[0,0.5],[1,0.5]];portConstraint=eastwest;whiteSpace=wrap;html=1;" vertex="1" parent="YY5nXGFPdTbep0M1L_WH-35">
          <mxGeometry y="26" width="140" height="68" as="geometry" />
        </mxCell>
        <mxCell id="YY5nXGFPdTbep0M1L_WH-50" value="" style="endArrow=open;html=1;endSize=12;startArrow=diamondThin;startSize=14;startFill=1;edgeStyle=orthogonalEdgeStyle;align=left;verticalAlign=bottom;rounded=0;" edge="1" parent="1" source="YY5nXGFPdTbep0M1L_WH-9" target="YY5nXGFPdTbep0M1L_WH-14">
          <mxGeometry x="-1" y="3" relative="1" as="geometry">
            <mxPoint x="327" y="435" as="sourcePoint" />
            <mxPoint x="487" y="435" as="targetPoint" />
            <Array as="points">
              <mxPoint x="404" y="444" />
              <mxPoint x="404" y="444" />
            </Array>
          </mxGeometry>
        </mxCell>
        <mxCell id="YY5nXGFPdTbep0M1L_WH-52" style="edgeStyle=orthogonalEdgeStyle;rounded=0;orthogonalLoop=1;jettySize=auto;html=1;" edge="1" parent="1" source="YY5nXGFPdTbep0M1L_WH-2" target="YY5nXGFPdTbep0M1L_WH-6">
          <mxGeometry relative="1" as="geometry" />
        </mxCell>
        <mxCell id="YY5nXGFPdTbep0M1L_WH-53" style="edgeStyle=orthogonalEdgeStyle;rounded=0;orthogonalLoop=1;jettySize=auto;html=1;" edge="1" parent="1" source="YY5nXGFPdTbep0M1L_WH-6" target="YY5nXGFPdTbep0M1L_WH-23">
          <mxGeometry relative="1" as="geometry" />
        </mxCell>
        <mxCell id="YY5nXGFPdTbep0M1L_WH-54" style="edgeStyle=orthogonalEdgeStyle;rounded=0;orthogonalLoop=1;jettySize=auto;html=1;" edge="1" parent="1" source="YY5nXGFPdTbep0M1L_WH-6" target="YY5nXGFPdTbep0M1L_WH-31">
          <mxGeometry relative="1" as="geometry">
            <mxPoint x="544" y="479" as="targetPoint" />
            <Array as="points">
              <mxPoint x="331" y="196" />
              <mxPoint x="331" y="258" />
              <mxPoint x="182" y="258" />
            </Array>
          </mxGeometry>
        </mxCell>
        <mxCell id="YY5nXGFPdTbep0M1L_WH-68" value="&amp;nbsp;&lt;div&gt;&lt;br&gt;&lt;/div&gt;" style="text;html=1;align=center;verticalAlign=middle;resizable=0;points=[];autosize=1;strokeColor=none;fillColor=none;" vertex="1" parent="1">
          <mxGeometry x="58" y="131" width="21" height="41" as="geometry" />
        </mxCell>
        <mxCell id="YY5nXGFPdTbep0M1L_WH-69" value="&amp;nbsp;" style="text;html=1;align=center;verticalAlign=middle;resizable=0;points=[];autosize=1;strokeColor=none;fillColor=none;" vertex="1" parent="1">
          <mxGeometry x="432" y="56" width="21" height="26" as="geometry" />
        </mxCell>
      </root>
    </mxGraphModel>
  </diagram>
</mxfile>
